# xmcd
#
# Track frame offsets:
#	150
#	11821
#	24178
#	36164
#	48912
#	60606
#	72139
#	83417
#	94001
#	106164
#	116641
#	131418
#	141398
#	152710
#	163739
#	174759
#	183003
#	193713
#	203304
#	215922
#	229612
#	242104
#	255907
#	269149
#	282744
#
# Disc length: 3900 seconds
#
# Revision: 0
# Processed by: cddbd v1.5.2PL0 Copyright (c) Steve Scherf et al.
# Submitted via: dBpowerAMP V4.0
#
DISCID=550f3a19
DTITLE=Marty Robbins - Knee Deep In The Blues
DYEAR=2007
DGENRE=Country
TTITLE0=That's All Right
TTITLE1=Gossip
TTITLE2=Daddy Loves You
TTITLE3=Pray For Me, Mother Of Mine
TTITLE4=It Looks Like I'm Just In The Way
TTITLE5=I'll Love You Till The Day I Die
TTITLE6=Maybellene
TTITLE7=This Broken Heart Of Mine
TTITLE8=Pretty Mama
TTITLE9=Don't Let Me Hang Around (If You Don't Care)
TTITLE10=Tennesse Toddy
TTITLE11=Mean Mama Blues
TTITLE12=Lone Gone Lonesome Blues
TTITLE13=Singing The Blues
TTITLE14=I Can't Quit (I've Gone Too Far)
TTITLE15=I'll Know You're Gone
TTITLE16=How Long Will It Be
TTITLE17=Long Tall Sally
TTITLE18=Mr. Teardrop
TTITLE19=Respectfully Miss Brooks
TTITLE20=You Don't Owe Me A Thing
TTITLE21=The Little Rosewood Casket
TTITLE22=The Letter Edged In Black
TTITLE23=The Same Two Lips
TTITLE24=Knee Deep In The Blues
EXTD=
EXTT0=
EXTT1=
EXTT2=
EXTT3=
EXTT4=
EXTT5=
EXTT6=
EXTT7=
EXTT8=
EXTT9=
EXTT10=
EXTT11=
EXTT12=
EXTT13=
EXTT14=
EXTT15=
EXTT16=
EXTT17=
EXTT18=
EXTT19=
EXTT20=
EXTT21=
EXTT22=
EXTT23=
EXTT24=
PLAYORDER=
